G04 #@! TF.FileFunction,Copper,L1,Top,Signal*
%FSLAX46Y46*%
G04 Gerber Fmt 4.6, Leading zero omitted, Abs format (unit mm)*
G04 Created by KiCad (PCBNEW 4.0.6) date 12/04/17 20:42:28*
%MOMM*%
%LPD*%
G01*
G04 APERTURE LIST*
%ADD10C,0.050000*%
%ADD11C,3.000000*%
%ADD12C,0.600000*%
%ADD13C,3.000000*%
G04 APERTURE END LIST*
D10*
D11*
X100000000Y-100000000D03*
X160000000Y-90000000D03*
X85000000Y-60000000D03*
X140000000Y-115000000D03*
X110000000Y-40000000D03*
X110000000Y-65000000D03*
X135000000Y-90000000D03*
X130000000Y-70000000D03*
D10*
G36*
X163596194Y-117060660D02*
X160060660Y-120596194D01*
X154403806Y-114939340D01*
X157939340Y-111403806D01*
X163596194Y-117060660D01*
X163596194Y-117060660D01*
G37*
G36*
X170596194Y-110060660D02*
X167060660Y-113596194D01*
X161403806Y-107939340D01*
X164939340Y-104403806D01*
X170596194Y-110060660D01*
X170596194Y-110060660D01*
G37*
G36*
X95596194Y-35060660D02*
X92060660Y-38596194D01*
X86403806Y-32939340D01*
X89939340Y-29403806D01*
X95596194Y-35060660D01*
X95596194Y-35060660D01*
G37*
G36*
X88596194Y-42060660D02*
X85060660Y-45596194D01*
X79403806Y-39939340D01*
X82939340Y-36403806D01*
X88596194Y-42060660D01*
X88596194Y-42060660D01*
G37*
D11*
X150264808Y-49735192D03*
X163735192Y-36264808D03*
X158350000Y-69150000D03*
X169650000Y-69150000D03*
X169650000Y-60850000D03*
X158350000Y-60850000D03*
X130850000Y-30350000D03*
X130850000Y-41650000D03*
X139150000Y-41650000D03*
X139150000Y-30350000D03*
D12*
X140000000Y-112000000D03*
X140000000Y-105000000D03*
X140000000Y-104000000D03*
X140000000Y-106000000D03*
X140000000Y-107000000D03*
X140000000Y-108000000D03*
X140000000Y-109000000D03*
X140000000Y-110000000D03*
X140000000Y-111000000D03*
X131000000Y-86000000D03*
X124000000Y-79000000D03*
X125000000Y-80000000D03*
X126000000Y-81000000D03*
X127000000Y-82000000D03*
X128000000Y-83000000D03*
X129000000Y-84000000D03*
X130000000Y-85000000D03*
X109000000Y-29000000D03*
X102000000Y-36000000D03*
X103000000Y-35000000D03*
X104000000Y-34000000D03*
X105000000Y-33000000D03*
X106000000Y-32000000D03*
X107000000Y-31000000D03*
X108000000Y-30000000D03*
X146000000Y-54000000D03*
X139000000Y-61000000D03*
X140000000Y-60000000D03*
X141000000Y-59000000D03*
X142000000Y-58000000D03*
X143000000Y-57000000D03*
X144000000Y-56000000D03*
X145000000Y-55000000D03*
D13*
X100000000Y-100000000D02*
X120000000Y-120000000D01*
X120000000Y-120000000D02*
X145000000Y-120000000D01*
X145000000Y-120000000D02*
X160000000Y-105000000D01*
X160000000Y-105000000D02*
X160000000Y-90000000D01*
X100000000Y-100000000D02*
X85000000Y-85000000D01*
X85000000Y-85000000D02*
X85000000Y-60000000D01*
X160000000Y-90000000D02*
X160000000Y-70800000D01*
X160000000Y-70800000D02*
X158350000Y-69150000D01*
X140000000Y-115000000D02*
X140000000Y-112000000D01*
X140000000Y-105000000D02*
X140000000Y-104000000D01*
X140000000Y-107000000D02*
X140000000Y-106000000D01*
X140000000Y-109000000D02*
X140000000Y-108000000D01*
X140000000Y-111000000D02*
X140000000Y-110000000D01*
X140000000Y-112000000D02*
X140000000Y-98000000D01*
X147000000Y-63000000D02*
X158000000Y-52000000D01*
X158000000Y-52000000D02*
X158000000Y-45000000D01*
X153000000Y-40000000D02*
X140800000Y-40000000D01*
X140800000Y-40000000D02*
X139150000Y-41650000D01*
X158000000Y-45000000D02*
X153000000Y-40000000D01*
X147000000Y-91000000D02*
X147000000Y-63000000D01*
X140000000Y-98000000D02*
X147000000Y-91000000D01*
X115000000Y-35000000D02*
X162470384Y-35000000D01*
X110000000Y-40000000D02*
X115000000Y-35000000D01*
X162470384Y-35000000D02*
X163735192Y-36264808D01*
X169650000Y-42198077D02*
X169650000Y-42179616D01*
X169650000Y-60850000D02*
X169650000Y-42198077D01*
X169650000Y-42179616D02*
X163735192Y-36264808D01*
X123000000Y-78000000D02*
X124000000Y-79000000D01*
X126000000Y-81000000D02*
X125000000Y-80000000D01*
X128000000Y-83000000D02*
X127000000Y-82000000D01*
X130000000Y-85000000D02*
X129000000Y-84000000D01*
X101000000Y-37000000D02*
X102000000Y-36000000D01*
X104000000Y-34000000D02*
X103000000Y-35000000D01*
X106000000Y-32000000D02*
X105000000Y-33000000D01*
X108000000Y-30000000D02*
X107000000Y-31000000D01*
X101000000Y-37000000D02*
X101000000Y-56000000D01*
X130850000Y-30350000D02*
X129500000Y-29000000D01*
X101000000Y-56000000D02*
X110000000Y-65000000D01*
X129500000Y-29000000D02*
X109000000Y-29000000D01*
X135000000Y-90000000D02*
X131000000Y-86000000D01*
X123000000Y-78000000D02*
X110000000Y-65000000D01*
X138000000Y-62000000D02*
X139000000Y-61000000D01*
X141000000Y-59000000D02*
X140000000Y-60000000D01*
X143000000Y-57000000D02*
X142000000Y-58000000D01*
X145000000Y-55000000D02*
X144000000Y-56000000D01*
X130000000Y-70000000D02*
X138000000Y-62000000D01*
X146000000Y-54000000D02*
X150264808Y-49735192D01*
M02*
