M48
INCH,TZ
T1C0.016
T2C0.039
T3C0.047
%
G90
G05
T1
X40157Y-14173
X40551Y-13780
X40945Y-13386
X41339Y-12992
X41732Y-12598
X42126Y-12205
X42520Y-11811
X42913Y-11417
X48819Y-31102
X49213Y-31496
X49606Y-31890
X50000Y-32283
X50394Y-32677
X50787Y-33071
X51181Y-33465
X51575Y-33858
X54724Y-24016
X55118Y-23622
X55118Y-40945
X55118Y-41339
X55118Y-41732
X55118Y-42126
X55118Y-42520
X55118Y-42913
X55118Y-43307
X55118Y-43701
X55118Y-44094
X55512Y-23228
X55906Y-22835
X56299Y-22441
X56693Y-22047
X57087Y-21654
X57480Y-21260
T2
X33465Y-23622
X39370Y-39370
X43307Y-15748
X43307Y-25591
X51181Y-27559
X51516Y-11949
X51516Y-16398
X53150Y-35433
X54783Y-11949
X54783Y-16398
X55118Y-45276
X62343Y-23957
X62343Y-27224
X62992Y-35433
X66791Y-23957
X66791Y-27224
T3
X33071Y-16142
X35827Y-13386
X59159Y-19581
X62598Y-45669
X64463Y-14277
X65354Y-42913
T0
M30
