G04 #@! TF.FileFunction,Soldermask,Bot*
%FSLAX46Y46*%
G04 Gerber Fmt 4.6, Leading zero omitted, Abs format (unit mm)*
G04 Created by KiCad (PCBNEW 4.0.6) date 12/04/17 20:42:28*
%MOMM*%
%LPD*%
G01*
G04 APERTURE LIST*
%ADD10C,0.050000*%
%ADD11C,3.400000*%
G04 APERTURE END LIST*
D10*
D11*
X100000000Y-100000000D03*
X160000000Y-90000000D03*
X85000000Y-60000000D03*
X140000000Y-115000000D03*
X110000000Y-40000000D03*
X110000000Y-65000000D03*
X135000000Y-90000000D03*
X130000000Y-70000000D03*
D10*
G36*
X163879037Y-117060660D02*
X160060660Y-120879037D01*
X154120963Y-114939340D01*
X157939340Y-111120963D01*
X163879037Y-117060660D01*
X163879037Y-117060660D01*
G37*
G36*
X170879037Y-110060660D02*
X167060660Y-113879037D01*
X161120963Y-107939340D01*
X164939340Y-104120963D01*
X170879037Y-110060660D01*
X170879037Y-110060660D01*
G37*
G36*
X95879037Y-35060660D02*
X92060660Y-38879037D01*
X86120963Y-32939340D01*
X89939340Y-29120963D01*
X95879037Y-35060660D01*
X95879037Y-35060660D01*
G37*
G36*
X88879037Y-42060660D02*
X85060660Y-45879037D01*
X79120963Y-39939340D01*
X82939340Y-36120963D01*
X88879037Y-42060660D01*
X88879037Y-42060660D01*
G37*
D11*
X150264808Y-49735192D03*
X163735192Y-36264808D03*
X158350000Y-69150000D03*
X169650000Y-69150000D03*
X169650000Y-60850000D03*
X158350000Y-60850000D03*
X130850000Y-30350000D03*
X130850000Y-41650000D03*
X139150000Y-41650000D03*
X139150000Y-30350000D03*
M02*
