G04 #@! TF.FileFunction,Copper,L2,Bot,Signal*
%FSLAX46Y46*%
G04 Gerber Fmt 4.6, Leading zero omitted, Abs format (unit mm)*
G04 Created by KiCad (PCBNEW 4.0.6) date 12/04/17 20:42:47*
%MOMM*%
%LPD*%
G01*
G04 APERTURE LIST*
%ADD10C,0.050000*%
%ADD11C,3.000000*%
%ADD12C,3.000000*%
G04 APERTURE END LIST*
D10*
D11*
X145000000Y-85000000D03*
X115000000Y-115000000D03*
D10*
G36*
X98939340Y-124596194D02*
X95403806Y-121060660D01*
X101060660Y-115403806D01*
X104596194Y-118939340D01*
X98939340Y-124596194D01*
X98939340Y-124596194D01*
G37*
G36*
X108939340Y-134596194D02*
X105403806Y-131060660D01*
X111060660Y-125403806D01*
X114596194Y-128939340D01*
X108939340Y-134596194D01*
X108939340Y-134596194D01*
G37*
D11*
X175000000Y-105000000D03*
X100000000Y-75000000D03*
X155000000Y-130000000D03*
X125000000Y-55000000D03*
X125000000Y-80000000D03*
X150000000Y-105000000D03*
X176293250Y-53706750D03*
X163706750Y-66293250D03*
D12*
X125000000Y-55000000D02*
X152413500Y-55000000D01*
X152413500Y-55000000D02*
X163706750Y-66293250D01*
X125000000Y-80000000D02*
X125000000Y-55000000D01*
X100000000Y-120000000D02*
X120000000Y-100000000D01*
X125000000Y-95000000D02*
X125000000Y-80000000D01*
X120000000Y-100000000D02*
X125000000Y-95000000D01*
X115000000Y-115000000D02*
X165000000Y-115000000D01*
X165000000Y-115000000D02*
X175000000Y-105000000D01*
X110000000Y-130000000D02*
X115000000Y-125000000D01*
X115000000Y-125000000D02*
X115000000Y-115000000D01*
X176293250Y-53706750D02*
X169586500Y-47000000D01*
X100000000Y-64000000D02*
X100000000Y-75000000D01*
X117000000Y-47000000D02*
X100000000Y-64000000D01*
X169586500Y-47000000D02*
X117000000Y-47000000D01*
X155000000Y-130000000D02*
X166000000Y-130000000D01*
X183000000Y-60413500D02*
X176293250Y-53706750D01*
X183000000Y-113000000D02*
X183000000Y-60413500D01*
X166000000Y-130000000D02*
X183000000Y-113000000D01*
X150000000Y-105000000D02*
X150000000Y-90000000D01*
X150000000Y-90000000D02*
X145000000Y-85000000D01*
M02*
