G04 #@! TF.FileFunction,Legend,Bot*
%FSLAX46Y46*%
G04 Gerber Fmt 4.6, Leading zero omitted, Abs format (unit mm)*
G04 Created by KiCad (PCBNEW 4.0.6) date 12/04/17 20:42:47*
%MOMM*%
%LPD*%
G01*
G04 APERTURE LIST*
%ADD10C,0.050000*%
%ADD11C,2.000000*%
%ADD12C,0.200000*%
%ADD13C,0.300000*%
G04 APERTURE END LIST*
D10*
D11*
X105000000Y-115000000D02*
X104000000Y-116000000D01*
X115000000Y-125000000D02*
X114000000Y-126000000D01*
X125000000Y-95000000D02*
X105000000Y-115000000D01*
X125000000Y-80000000D02*
X125000000Y-55000000D01*
D12*
X109000000Y-120000000D02*
X106000000Y-117000000D01*
X110000000Y-121000000D02*
X113000000Y-124000000D01*
D11*
X150000000Y-90000000D02*
X150000000Y-105000000D01*
X145000000Y-85000000D02*
X150000000Y-90000000D01*
X165000000Y-115000000D02*
X175000000Y-105000000D01*
X115000000Y-115000000D02*
X165000000Y-115000000D01*
X115000000Y-115000000D02*
X115000000Y-125000000D01*
X125000000Y-80000000D02*
X125000000Y-95000000D01*
D12*
X125000000Y-55000000D02*
X125000000Y-80000000D01*
D11*
X163000000Y-66000000D02*
X164000000Y-66000000D01*
X152000000Y-55000000D02*
X163000000Y-66000000D01*
X125000000Y-55000000D02*
X152000000Y-55000000D01*
X100000000Y-64000000D02*
X100000000Y-75000000D01*
X117000000Y-47000000D02*
X100000000Y-64000000D01*
X169000000Y-47000000D02*
X117000000Y-47000000D01*
X183000000Y-61000000D02*
X169000000Y-47000000D01*
X183000000Y-113000000D02*
X183000000Y-61000000D01*
X166000000Y-130000000D02*
X183000000Y-113000000D01*
X155000000Y-130000000D02*
X166000000Y-130000000D01*
D12*
X109000000Y-121000000D02*
X109000000Y-120000000D01*
X109000000Y-121000000D02*
X110000000Y-121000000D01*
X108000000Y-122000000D02*
X109000000Y-121000000D01*
X102000000Y-128000000D02*
X99000000Y-131000000D01*
D13*
X107525381Y-123434263D02*
X106464721Y-122373603D01*
X107020304Y-123939340D02*
X105959644Y-122878680D01*
X106414213Y-124545431D01*
X105353553Y-123484771D01*
X105909136Y-125050508D02*
X104848476Y-123989848D01*
X104444416Y-124393908D01*
X104393908Y-124545432D01*
X104393908Y-124646447D01*
X104444416Y-124797970D01*
X104595938Y-124949493D01*
X104747462Y-125000001D01*
X104848476Y-125000001D01*
X105000000Y-124949493D01*
X105404061Y-124545432D01*
X103787816Y-125050508D02*
X104646446Y-125909138D01*
X104696954Y-126060660D01*
X104696954Y-126161676D01*
X104646446Y-126313198D01*
X104444416Y-126515229D01*
X104292893Y-126565737D01*
X104191877Y-126565737D01*
X104040354Y-126515229D01*
X103181724Y-125656600D01*
X102828171Y-126010153D02*
X102222079Y-126616245D01*
X103585785Y-127373859D02*
X102525125Y-126313199D01*
X107479822Y-127671701D02*
X106671700Y-128479823D01*
X107479822Y-128479822D02*
X106671700Y-127671700D01*
X102479822Y-122671701D02*
X101671700Y-123479823D01*
M02*
